<svg width="9" height="7" viewBox="0 0 9 7" fill="none" xmlns="http://www.w3.org/2000/svg">
<path d="M8.17678 1.1565C8.17245 1.15217 8.16801 1.14804 8.16345 1.14409L7.84317 0.823349C7.79629 0.776408 7.73268 0.750022 7.66634 0.75C7.60001 0.749978 7.53638 0.776323 7.48948 0.823234L3.33332 4.97989L1.51004 3.15659C1.46316 3.1097 1.39957 3.08336 1.33327 3.08336C1.26696 3.08336 1.20337 3.1097 1.15649 3.15659L0.823222 3.48986C0.725593 3.58749 0.725593 3.74578 0.823222 3.84341L3.15656 6.17678C3.20344 6.22366 3.26703 6.25 3.33333 6.25C3.39964 6.25 3.46323 6.22366 3.51011 6.17678L8.1761 1.51072C8.17617 1.51065 8.17624 1.51059 8.17631 1.51052L8.17678 1.51005C8.27441 1.41242 8.27441 1.25413 8.17678 1.1565Z" fill="white" stroke="white" stroke-width="0.5" stroke-linejoin="round"/>
</svg>
