<svg width="36" height="36" viewBox="0 0 36 36" fill="none" xmlns="http://www.w3.org/2000/svg">
<path d="M10.2143 21.2121C11.0102 21.2119 11.7817 21.482 12.3982 21.9765C13.0147 22.471 13.4384 23.1597 13.5976 23.9259H23.3333V10.3569H8.14286C7.41035 10.3569 6.70785 10.6428 6.1899 11.1518C5.67194 11.6607 5.38095 12.351 5.38095 13.0707V23.9259H6.83095C6.99013 23.1597 7.41384 22.471 8.03038 21.9765C8.64691 21.482 9.41841 21.2119 10.2143 21.2121ZM10.2143 27.9966C9.41841 27.9968 8.64691 27.7267 8.03038 27.2322C7.41384 26.7377 6.99013 26.049 6.83095 25.2828H4V13.0707C4 11.9911 4.43648 10.9557 5.21341 10.1923C5.99035 9.42888 7.0441 9 8.14286 9H23.3333C23.6996 9 24.0508 9.14296 24.3098 9.39743C24.5688 9.6519 24.7143 9.99703 24.7143 10.3569V13.0707H28.8571L33 18.4725V25.2828H30.169C30.0106 26.0496 29.5872 26.7391 28.9706 27.2343C28.354 27.7295 27.5821 28 26.7857 28C25.9893 28 25.2175 27.7295 24.6009 27.2343C23.9843 26.7391 23.5609 26.0496 23.4024 25.2828H13.5976C13.4384 26.049 13.0147 26.7377 12.3982 27.2322C11.7817 27.7267 11.0102 27.9968 10.2143 27.9966ZM10.2143 22.569C9.66491 22.569 9.13803 22.7834 8.74956 23.1651C8.3611 23.5468 8.14286 24.0645 8.14286 24.6044C8.14286 25.1442 8.3611 25.6619 8.74956 26.0436C9.13803 26.4253 9.66491 26.6397 10.2143 26.6397C10.7637 26.6397 11.2905 26.4253 11.679 26.0436C12.0675 25.6619 12.2857 25.1442 12.2857 24.6044C12.2857 24.0645 12.0675 23.5468 11.679 23.1651C11.2905 22.7834 10.7637 22.569 10.2143 22.569ZM26.7857 21.2121C27.5816 21.2119 28.3531 21.482 28.9696 21.9765C29.5862 22.471 30.0099 23.1597 30.169 23.9259H31.619V18.9271L31.2904 18.4983H24.7143V21.8905C25.3114 21.4493 26.0386 21.2111 26.7857 21.2121ZM26.7857 22.569C26.2363 22.569 25.7095 22.7834 25.321 23.1651C24.9325 23.5468 24.7143 24.0645 24.7143 24.6044C24.7143 25.1442 24.9325 25.6619 25.321 26.0436C25.7095 26.4253 26.2363 26.6397 26.7857 26.6397C27.3351 26.6397 27.862 26.4253 28.2504 26.0436C28.6389 25.6619 28.8571 25.1442 28.8571 24.6044C28.8571 24.0645 28.6389 23.5468 28.2504 23.1651C27.862 22.7834 27.3351 22.569 26.7857 22.569ZM24.7143 14.4276V17.1414H30.2505L28.1667 14.4276H24.7143Z" fill="#0561FC"/>
</svg>
