<svg width="16" height="16" viewBox="0 0 16 16" fill="none" xmlns="http://www.w3.org/2000/svg">
<path d="M7.25441 3.93076H8.7455V7.56889H14.3032C14.5009 7.56889 14.6905 7.49359 14.8304 7.35957C14.9702 7.22555 15.0487 7.04379 15.0487 6.85425V4.64539C15.0487 4.45586 14.9702 4.27409 14.8304 4.14007C14.6905 4.00605 14.5009 3.93076 14.3032 3.93076H12.276C12.5505 3.38881 12.6144 2.7708 12.4563 2.18772C12.2982 1.60465 11.9283 1.09473 11.4132 0.749551C10.8981 0.404372 10.2714 0.246555 9.64585 0.304447C9.02024 0.362339 8.43667 0.632148 7.99995 1.06541C7.56248 0.634522 6.97941 0.3668 6.35495 0.310092C5.73048 0.253383 5.10533 0.411385 4.59123 0.755858C4.07712 1.10033 3.70757 1.60882 3.54862 2.19045C3.38967 2.77207 3.45168 3.38893 3.72358 3.93076H1.69672C1.49899 3.93076 1.30935 4.00605 1.16954 4.14007C1.02972 4.27409 0.951172 4.45586 0.951172 4.64539V6.85425C0.951172 7.04379 1.02972 7.22555 1.16954 7.35957C1.23877 7.42593 1.32095 7.47857 1.41141 7.51449C1.50186 7.5504 1.59881 7.56889 1.69672 7.56889H7.25441V3.93076ZM8.7455 2.82633C8.7455 2.60789 8.81307 2.39436 8.93968 2.21274C9.06628 2.03112 9.24623 1.88956 9.45677 1.80597C9.66731 1.72237 9.89898 1.7005 10.1225 1.74312C10.346 1.78573 10.5513 1.89092 10.7124 2.04538C10.8736 2.19983 10.9833 2.39662 11.0278 2.61086C11.0722 2.8251 11.0494 3.04717 10.9622 3.24897C10.875 3.45078 10.7273 3.62327 10.5378 3.74463C10.3484 3.86599 10.1256 3.93076 9.8977 3.93076H8.7455V2.82633ZM4.95 2.82633C4.95 2.53341 5.07139 2.2525 5.28747 2.04538C5.50355 1.83826 5.79662 1.7219 6.1022 1.7219C6.40779 1.7219 6.70085 1.83826 6.91693 2.04538C7.13302 2.2525 7.25441 2.53341 7.25441 2.82633V3.93076H6.1022C5.79662 3.93076 5.50355 3.8144 5.28747 3.60728C5.07139 3.40016 4.95 3.11924 4.95 2.82633Z" fill="white"/>
<path d="M8.68213 15.2997H13.3597C13.5664 15.2997 13.7647 15.2229 13.9109 15.0861C14.0571 14.9493 14.1392 14.7637 14.1392 14.5702V8.93311H8.68213V15.2997Z" fill="white"/>
<path d="M2.31543 14.5702C2.31543 14.7637 2.39072 14.9493 2.52474 15.0861C2.65876 15.2229 2.84052 15.2997 3.03005 15.2997H7.31779V8.93311H2.31543V14.5702Z" fill="white"/>
</svg>
