<svg width="36" height="36" viewBox="0 0 36 36" fill="none" xmlns="http://www.w3.org/2000/svg">
<path d="M6 3C5.20435 3 4.44129 3.31607 3.87868 3.87868C3.31607 4.44129 3 5.20435 3 6V21H6V6H21V3H6ZM12 9C11.2044 9 10.4413 9.31607 9.87868 9.87868C9.31607 10.4413 9 11.2044 9 12V27H12V12H27V9H12ZM30 18V30H18V18H30ZM30 15H18C17.2044 15 16.4413 15.3161 15.8787 15.8787C15.3161 16.4413 15 17.2044 15 18V30C15 30.7956 15.3161 31.5587 15.8787 32.1213C16.4413 32.6839 17.2044 33 18 33H30C30.7956 33 31.5587 32.6839 32.1213 32.1213C32.6839 31.5587 33 30.7956 33 30V18C33 17.2044 32.6839 16.4413 32.1213 15.8787C31.5587 15.3161 30.7956 15 30 15Z" fill="#0561FC"/>
</svg>
