<svg width="36" height="36" viewBox="0 0 36 36" fill="none" xmlns="http://www.w3.org/2000/svg">
<path d="M12.3529 10.45H15.1471C15.1471 9.535 15.5003 8.65748 16.1291 8.01048C16.7579 7.36348 17.6107 7 18.5 7C19.3893 7 20.2421 7.36348 20.8709 8.01048C21.4997 8.65748 21.8529 9.535 21.8529 10.45H24.6471C25.5363 10.45 26.3891 10.8135 27.0179 11.4605C27.6467 12.1075 28 12.985 28 13.9V26.55C28 27.465 27.6467 28.3425 27.0179 28.9895C26.3891 29.6365 25.5363 30 24.6471 30H12.3529C11.4637 30 10.6109 29.6365 9.98205 28.9895C9.35326 28.3425 9 27.465 9 26.55V13.9C9 12.985 9.35326 12.1075 9.98205 11.4605C10.6109 10.8135 11.4637 10.45 12.3529 10.45ZM12.3529 11.6C11.7601 11.6 11.1915 11.8423 10.7723 12.2737C10.3532 12.705 10.1176 13.29 10.1176 13.9V26.55C10.1176 27.16 10.3532 27.745 10.7723 28.1763C11.1915 28.6077 11.7601 28.85 12.3529 28.85H24.6471C25.2399 28.85 25.8085 28.6077 26.2276 28.1763C26.6468 27.745 26.8824 27.16 26.8824 26.55V13.9C26.8824 13.29 26.6468 12.705 26.2276 12.2737C25.8085 11.8423 25.2399 11.6 24.6471 11.6H23.5294V15.05H13.4706V11.6H12.3529ZM14.5882 13.9H22.4118V11.6H14.5882V13.9ZM18.5 8.15C17.9072 8.15 17.3386 8.39232 16.9194 8.82365C16.5002 9.25499 16.2647 9.84 16.2647 10.45H20.7353C20.7353 9.84 20.4998 9.25499 20.0806 8.82365C19.6614 8.39232 19.0928 8.15 18.5 8.15ZM24.8147 18.04L16.8235 26.2625L13.2471 22.5825L14.0372 21.7695L16.8235 24.6364L24.0234 17.2269L24.8136 18.04H24.8147Z" fill="#0561FC"/>
</svg>
