<svg width="31" height="31" viewBox="0 0 31 31" fill="none" xmlns="http://www.w3.org/2000/svg">
<path d="M19.9526 17.8286C19.9976 17.8736 20.0333 17.927 20.0576 17.9858C20.082 18.0445 20.0945 18.1075 20.0945 18.1711C20.0945 18.2348 20.082 18.2977 20.0576 18.3565C20.0333 18.4153 19.9976 18.4687 19.9526 18.5137L15.8427 22.6236C15.8203 22.6459 15.7958 22.6661 15.7694 22.6836C15.7627 22.6881 15.7551 22.6909 15.7484 22.6951C15.7285 22.7077 15.7077 22.7187 15.6862 22.7282C15.6764 22.7324 15.6657 22.7343 15.6556 22.7378C15.6361 22.7451 15.6161 22.7512 15.5958 22.7559C15.5326 22.7688 15.4674 22.7688 15.4042 22.7559C15.3839 22.7512 15.3639 22.7451 15.3444 22.7378C15.3342 22.7343 15.3237 22.7324 15.3138 22.7282C15.2923 22.7187 15.2715 22.7077 15.2516 22.6951C15.2449 22.691 15.2373 22.6881 15.2306 22.6836C15.2043 22.666 15.1798 22.6459 15.1574 22.6236L11.0475 18.5137C10.9583 18.4225 10.9087 18.2998 10.9094 18.1723C10.9101 18.0448 10.9611 17.9227 11.0513 17.8325C11.1414 17.7423 11.2635 17.6913 11.391 17.6906C11.5186 17.6899 11.6412 17.7395 11.7324 17.8286L15.0156 21.1118V12.5938C15.0156 12.4653 15.0667 12.3421 15.1575 12.2512C15.2483 12.1604 15.3715 12.1094 15.5 12.1094C15.6285 12.1094 15.7517 12.1604 15.8425 12.2512C15.9333 12.3421 15.9844 12.4653 15.9844 12.5938V21.1118L19.2676 17.8286C19.3126 17.7837 19.366 17.748 19.4247 17.7236C19.4835 17.6993 19.5465 17.6868 19.6101 17.6868C19.6737 17.6868 19.7367 17.6993 19.7955 17.7236C19.8542 17.748 19.9076 17.7837 19.9526 17.8286ZM26.6406 8.71875V25.1875C26.6402 25.5728 26.487 25.9421 26.2146 26.2146C25.9421 26.487 25.5728 26.6402 25.1875 26.6406H5.8125C5.42724 26.6402 5.05787 26.487 4.78545 26.2146C4.51302 25.9421 4.35979 25.5728 4.35938 25.1875V8.71875C4.35961 8.68325 4.36376 8.64788 4.37173 8.61328C4.37379 8.60383 4.37754 8.59511 4.3802 8.58579C4.38692 8.56128 4.39559 8.53735 4.40612 8.51422C4.40793 8.51035 4.40854 8.50599 4.41048 8.50211L6.34798 4.62711C6.38821 4.54665 6.45006 4.47899 6.52658 4.4317C6.60311 4.38441 6.69129 4.35937 6.78125 4.35938H24.2188C24.3087 4.35936 24.3969 4.38438 24.4734 4.43165C24.5499 4.47891 24.6118 4.54656 24.652 4.62699L26.5895 8.50199C26.5915 8.50599 26.5921 8.51035 26.5939 8.51422C26.6044 8.53732 26.613 8.56121 26.6198 8.58567C26.6225 8.59499 26.6262 8.60383 26.6283 8.61328C26.6363 8.64787 26.6404 8.68324 26.6406 8.71875ZM5.62747 8.23438H25.3725L23.9194 5.32812H7.08059L5.62747 8.23438ZM25.6719 25.1875V9.20312H5.32812V25.1875C5.32825 25.3159 5.37933 25.4391 5.47014 25.5299C5.56095 25.6207 5.68408 25.6717 5.8125 25.6719H25.1875C25.3159 25.6717 25.4391 25.6207 25.5299 25.5299C25.6207 25.4391 25.6717 25.3159 25.6719 25.1875Z" fill="white"/>
</svg>
