<svg width="36" height="36" viewBox="0 0 36 36" fill="none" xmlns="http://www.w3.org/2000/svg">
<path d="M18 15.6027L14.404 18L18 20.3974L21.596 18L18 15.6027ZM24 16.3974L27.596 14L19.3334 8.49204V13.2867L24 16.3974ZM28.6667 16.4907L26.404 18L28.6667 19.508V16.4934V16.4907ZM24 19.6027L19.3334 22.7134V27.508L27.596 22L24 19.6027ZM16.6667 13.2867V8.49204L8.40402 14L12 16.3974L16.6667 13.2867ZM8.40402 22L16.6667 27.508V22.7134L12 19.6027L8.40402 22ZM9.59602 18L7.33335 16.492V19.508L9.59602 18ZM4.66669 14C4.66665 13.7806 4.72079 13.5645 4.82429 13.371C4.9278 13.1775 5.07747 13.0125 5.26002 12.8907L17.26 4.8907C17.4791 4.74452 17.7366 4.6665 18 4.6665C18.2634 4.6665 18.5209 4.74452 18.74 4.8907L30.74 12.8907C30.9226 13.0125 31.0722 13.1775 31.1757 13.371C31.2792 13.5645 31.3334 13.7806 31.3334 14V22C31.3334 22.2195 31.2792 22.4356 31.1757 22.6291C31.0722 22.8226 30.9226 22.9876 30.74 23.1094L18.74 31.1094C18.5209 31.2556 18.2634 31.3336 18 31.3336C17.7366 31.3336 17.4791 31.2556 17.26 31.1094L5.26002 23.1094C5.07747 22.9876 4.9278 22.8226 4.82429 22.6291C4.72079 22.4356 4.66665 22.2195 4.66669 22V14Z" fill="#0561FC"/>
</svg>
