<svg width="128" height="34" viewBox="0 0 128 34" fill="none" xmlns="http://www.w3.org/2000/svg">
<path d="M1.04297 7.75432L15.2894 0L29.4288 7.75432L25.3715 9.96657L15.2894 4.74108L5.37917 9.96657L1.04297 7.75432Z" fill="#0363ED"/>
<path d="M1.04297 26.2419L15.2894 34L29.4288 26.2419L25.3715 24.0297L15.2894 29.2552L5.37917 24.0297L1.04297 26.2419Z" fill="#0363ED"/>
<path d="M0 24.2623L3.9618 22.2064V17.5149L15.1786 23.5719L18.8309 21.5961L3.99618 13.4032V11.8355L0 9.66907V24.2623Z" fill="#0363ED"/>
<path d="M30.2694 9.66907L26.3038 11.7249V16.4164L15.0908 10.3594L11.4385 12.3352L26.2732 20.5282V22.0958L30.2694 24.2623V9.66907Z" fill="#0363ED"/>
<path d="M41.4938 21.188C41.8911 21.188 42.2235 21.1537 42.4833 21.0888C42.7431 21.024 42.9532 20.9325 43.1099 20.818C43.2665 20.7036 43.3773 20.5663 43.4346 20.4099C43.4957 20.2535 43.5263 20.0781 43.5263 19.8835C43.5263 19.4716 43.3314 19.1321 42.9456 18.8613C42.5597 18.5905 41.895 18.2968 40.9513 17.9841C40.5387 17.8391 40.1299 17.6751 39.7173 17.4882C39.3047 17.3013 38.9379 17.0648 38.6132 16.7826C38.2885 16.5003 38.021 16.157 37.8147 15.7527C37.6084 15.3484 37.5053 14.8564 37.5053 14.2766C37.5053 13.6969 37.6122 13.1743 37.83 12.709C38.0478 12.2437 38.3572 11.8508 38.7546 11.5228C39.1519 11.1986 39.6371 10.9468 40.2063 10.7714C40.7756 10.5959 41.4136 10.5082 42.128 10.5082C42.9723 10.5082 43.7059 10.5997 44.3209 10.779C44.936 10.9583 45.4442 11.1604 45.8453 11.3778L45.0277 13.6053C44.6762 13.4261 44.2866 13.2659 43.8587 13.1247C43.4308 12.9874 42.9112 12.915 42.3076 12.915C41.6314 12.915 41.1423 13.0103 40.8482 13.1972C40.5502 13.3841 40.405 13.6702 40.405 14.0554C40.405 14.2843 40.4585 14.4788 40.5693 14.6352C40.6762 14.7916 40.8329 14.9327 41.0315 15.0624C41.2302 15.1882 41.4594 15.3027 41.7192 15.4056C41.979 15.5086 42.2655 15.6116 42.5788 15.7222C43.2321 15.9625 43.8014 16.2028 44.2827 16.4355C44.7641 16.672 45.1691 16.9466 45.49 17.2594C45.8109 17.5721 46.0478 17.9421 46.2082 18.3617C46.3649 18.785 46.4451 19.2962 46.4451 19.8988C46.4451 21.0698 46.0325 21.9776 45.2111 22.6222C44.3897 23.2668 43.1519 23.591 41.4938 23.591C40.936 23.591 40.4356 23.5566 39.9886 23.4918C39.5416 23.427 39.1442 23.343 38.8004 23.2477C38.4566 23.1523 38.1586 23.0494 37.9102 22.9387C37.6619 22.8281 37.4556 22.729 37.2837 22.6298L38.0822 20.387C38.4566 20.593 38.9188 20.7761 39.469 20.9401C40.0229 21.1079 40.6992 21.188 41.4938 21.188Z" fill="#1D1D1B"/>
<path d="M48.3477 11.4503L51.0487 11.0155V13.8228H54.2923V16.0655H51.0487V19.4144C51.0487 19.9827 51.148 20.4328 51.3467 20.7723C51.5454 21.1118 51.9465 21.2796 52.554 21.2796C52.8443 21.2796 53.1423 21.2529 53.4518 21.1995C53.7612 21.1461 54.0401 21.0698 54.2961 20.9744L54.6781 23.0723C54.3534 23.2058 53.9904 23.3202 53.5893 23.4156C53.1882 23.5109 52.6991 23.5605 52.1222 23.5605C51.3849 23.5605 50.7736 23.4613 50.2923 23.263C49.8071 23.0646 49.4212 22.7862 49.1308 22.4315C48.8405 22.0768 48.638 21.6457 48.5234 21.1385C48.4088 20.6312 48.3515 20.0705 48.3515 19.4564V11.4503H48.3477Z" fill="#1D1D1B"/>
<path d="M55.6714 18.6554C55.6714 17.8124 55.8013 17.0725 56.0611 16.4393C56.3209 15.8062 56.6609 15.2798 57.0849 14.8564C57.509 14.433 57.9942 14.1126 58.5444 13.899C59.0945 13.6816 59.6599 13.5748 60.2406 13.5748C61.5931 13.5748 62.6628 13.9868 63.4498 14.8145C64.2368 15.6421 64.6265 16.8551 64.6265 18.4609C64.6265 18.6172 64.6188 18.7889 64.6074 18.9758C64.5959 19.1627 64.5845 19.3305 64.5692 19.4716H58.4412C58.5023 20.0285 58.7621 20.4671 59.2206 20.7913C59.679 21.1156 60.2979 21.2796 61.0697 21.2796C61.5663 21.2796 62.0515 21.2338 62.5291 21.1423C63.0066 21.0507 63.3963 20.9401 63.6981 20.8066L64.0611 22.996C63.9159 23.0684 63.721 23.1409 63.4804 23.2134C63.2397 23.2858 62.9684 23.3507 62.6742 23.4041C62.3763 23.4575 62.0592 23.5033 61.723 23.5414C61.3829 23.5757 61.0467 23.5948 60.7067 23.5948C59.8471 23.5948 59.1021 23.4689 58.4679 23.2134C57.8338 22.9616 57.3065 22.6145 56.8901 22.1721C56.4737 21.7335 56.1642 21.2109 55.9656 20.6083C55.7707 20.0056 55.6714 19.3534 55.6714 18.6554ZM62.0171 17.6217C62.0057 17.3929 61.9675 17.1678 61.8987 16.9504C61.8299 16.733 61.7306 16.5385 61.5892 16.3707C61.4517 16.2028 61.276 16.0617 61.062 15.9549C60.8519 15.8443 60.5883 15.7909 60.275 15.7909C59.9732 15.7909 59.7134 15.8405 59.4956 15.9435C59.2779 16.0464 59.0983 16.1799 58.9531 16.3516C58.808 16.5232 58.6972 16.7178 58.6169 16.939C58.5367 17.164 58.4794 17.3891 58.445 17.6179H62.0171V17.6217Z" fill="#1D1D1B"/>
<path d="M75.5757 18.5829C75.5757 19.3191 75.484 19.9904 75.3045 20.593C75.1249 21.1957 74.8575 21.7144 74.506 22.1492C74.1545 22.584 73.719 22.9197 73.1994 23.1638C72.6798 23.4079 72.08 23.5261 71.4038 23.5261C71.0294 23.5261 70.6779 23.4918 70.3532 23.4155C70.0285 23.3431 69.7114 23.2401 69.4095 23.1066V26.692H66.7085V14.147C66.9492 14.0745 67.2281 14.0058 67.5413 13.941C67.8546 13.8762 68.1832 13.8189 68.5308 13.7694C68.8747 13.7198 69.2262 13.6816 69.5815 13.6511C69.9368 13.6206 70.2806 13.6053 70.6053 13.6053C71.3923 13.6053 72.0915 13.7236 72.7066 13.9563C73.3217 14.1889 73.8412 14.5246 74.2653 14.9518C74.6894 15.379 75.0103 15.9015 75.2357 16.5156C75.4649 17.1335 75.5757 17.8239 75.5757 18.5829ZM72.8212 18.6554C72.8212 17.8239 72.634 17.1564 72.2596 16.6567C71.8852 16.1571 71.3274 15.9053 70.5901 15.9053C70.3494 15.9053 70.124 15.913 69.9177 15.932C69.7114 15.9511 69.5433 15.9702 69.4095 15.9969V20.8638C69.5776 20.9706 69.7992 21.0622 70.0705 21.1346C70.3417 21.2071 70.6168 21.2414 70.8957 21.2414C72.1794 21.2414 72.8212 20.3794 72.8212 18.6554Z" fill="#1D1D1B"/>
<path d="M84.7069 21.5962C84.5846 21.2949 84.4127 20.8982 84.1873 20.4024C83.9619 19.9065 83.7097 19.3687 83.4308 18.7813C83.152 18.1977 82.8654 17.5913 82.5751 16.9696C82.2847 16.3478 82.0058 15.7643 81.7384 15.2226C81.471 14.681 81.2341 14.2042 81.0278 13.7923C80.8215 13.3804 80.6687 13.0943 80.5732 12.9227C80.4165 14.4331 80.2904 16.0694 80.2026 17.8354C80.1109 19.6014 80.0306 21.4589 79.9581 23.4003H78.7432C78.854 21.1194 78.9762 18.9377 79.1137 16.8475C79.2513 14.7611 79.4232 12.7625 79.6295 10.8553H80.7183C81.0813 11.458 81.4671 12.156 81.8797 12.9455C82.2924 13.7351 82.7011 14.5551 83.1061 15.4057C83.5111 16.2563 83.9046 17.0954 84.2866 17.9231C84.6687 18.7508 85.0049 19.4946 85.2952 20.1582C85.5856 19.4946 85.9218 18.7508 86.3038 17.9231C86.6859 17.0954 87.0794 16.2563 87.4843 15.4057C87.8893 14.5551 88.2981 13.7351 88.7107 12.9455C89.1233 12.156 89.5092 11.458 89.8721 10.8553H90.9036C91.1099 12.7625 91.2818 14.7573 91.4194 16.8475C91.5569 18.9339 91.683 21.1194 91.79 23.4003H90.5445C90.4719 21.4589 90.3917 19.6014 90.3 17.8354C90.2083 16.0694 90.086 14.4293 89.9294 12.9227C89.8339 13.0905 89.6811 13.3804 89.4748 13.7923C89.2685 14.2042 89.0316 14.681 88.768 15.2226C88.5006 15.7643 88.2255 16.3478 87.9351 16.9696C87.6448 17.5913 87.3621 18.1939 87.0832 18.7813C86.8043 19.3687 86.556 19.9065 86.3306 20.4024C86.1051 20.8982 85.9332 21.2949 85.8148 21.5962H84.7069Z" fill="#1D1D1B"/>
<path d="M94.0977 18.7163C94.0977 17.8963 94.2161 17.1792 94.4491 16.5728C94.6822 15.9663 94.9916 15.4552 95.3737 15.0432C95.7557 14.6313 96.1913 14.3262 96.6803 14.1278C97.1693 13.9295 97.6736 13.8303 98.1932 13.8303C99.3431 13.8303 100.256 14.2041 100.94 14.9517C101.624 15.6993 101.964 16.8512 101.964 18.4074C101.964 18.5027 101.96 18.6019 101.956 18.6973C101.949 18.7926 101.941 18.8842 101.93 18.9681H95.3469C95.3851 20.1162 95.6679 20.9934 96.1989 21.6113C96.7299 22.2254 97.5781 22.5344 98.7357 22.5344C99.3775 22.5344 99.8818 22.4734 100.26 22.3551C100.634 22.2331 100.906 22.1339 101.074 22.0462L101.292 23.0607C101.123 23.1561 100.806 23.2705 100.34 23.404C99.8742 23.5375 99.3278 23.6024 98.7013 23.6024C97.8799 23.6024 97.1769 23.4803 96.6 23.24C96.0193 22.9997 95.5418 22.6603 95.1674 22.2254C94.793 21.7906 94.5217 21.2757 94.3536 20.6769C94.1817 20.0818 94.0977 19.4296 94.0977 18.7163ZM100.753 17.9764C100.73 16.9999 100.497 16.2409 100.065 15.6955C99.6335 15.15 99.0146 14.8792 98.2161 14.8792C97.792 14.8792 97.4138 14.9631 97.0814 15.1348C96.749 15.3026 96.4587 15.5315 96.2104 15.8137C95.962 16.096 95.771 16.4278 95.6297 16.8016C95.4921 17.1754 95.4081 17.5683 95.3851 17.9764H100.753Z" fill="#1D1D1B"/>
<path d="M105.7 14.0478H109.436V15.0433H105.7V20.0209C105.7 20.551 105.746 20.9821 105.837 21.3139C105.929 21.6457 106.059 21.9013 106.227 22.0844C106.395 22.2636 106.602 22.3857 106.842 22.4467C107.083 22.5077 107.35 22.5383 107.641 22.5383C108.137 22.5383 108.535 22.481 108.837 22.3666C109.138 22.2522 109.375 22.1454 109.543 22.05L109.834 23.0265C109.666 23.1333 109.368 23.2591 108.944 23.3965C108.519 23.5338 108.061 23.6062 107.564 23.6062C106.984 23.6062 106.498 23.53 106.105 23.3812C105.711 23.2324 105.398 22.9998 105.161 22.6946C104.924 22.3857 104.76 22.0043 104.661 21.5466C104.565 21.0889 104.516 20.5472 104.516 19.9179V11.2977L105.692 11.0803V14.0478H105.7Z" fill="#1D1D1B"/>
<path d="M114.457 13.8303C115.072 13.8303 115.595 13.9181 116.023 14.0935C116.451 14.269 116.799 14.5093 117.066 14.8182C117.333 15.1272 117.524 15.4895 117.647 15.9129C117.769 16.3363 117.826 16.794 117.826 17.2898V23.1904C117.704 23.2248 117.528 23.2667 117.299 23.3087C117.07 23.3506 116.802 23.3964 116.501 23.446C116.199 23.4956 115.863 23.5337 115.496 23.5642C115.125 23.5947 114.751 23.61 114.361 23.61C113.864 23.61 113.41 23.5566 112.993 23.446C112.577 23.3392 112.214 23.1637 111.905 22.9311C111.595 22.6946 111.354 22.3933 111.179 22.0271C111.003 21.6609 110.915 21.2108 110.915 20.6769C110.915 20.1696 111.011 19.7347 111.205 19.3724C111.4 19.01 111.671 18.7125 112.023 18.476C112.374 18.2396 112.791 18.0679 113.272 17.9611C113.757 17.8505 114.281 17.7971 114.85 17.7971C115.018 17.7971 115.198 17.8047 115.385 17.8238C115.572 17.8429 115.752 17.8658 115.927 17.8963C116.103 17.9268 116.252 17.9573 116.382 17.9878C116.512 18.0183 116.596 18.045 116.646 18.0679V17.4882C116.646 17.164 116.623 16.8474 116.573 16.5384C116.523 16.2295 116.42 15.9548 116.256 15.7069C116.092 15.459 115.863 15.2607 115.568 15.1081C115.274 14.9555 114.881 14.883 114.399 14.883C113.712 14.883 113.196 14.9326 112.86 15.028C112.52 15.1233 112.271 15.2034 112.115 15.2645L111.95 14.2308C112.157 14.1355 112.474 14.0439 112.902 13.96C113.333 13.8723 113.853 13.8303 114.457 13.8303ZM114.564 22.5535C115.022 22.5535 115.423 22.5382 115.771 22.5077C116.115 22.4772 116.409 22.439 116.65 22.3894V19.094C116.516 19.0329 116.306 18.9719 116.015 18.9032C115.725 18.8384 115.328 18.8041 114.82 18.8041C114.529 18.8041 114.227 18.827 113.914 18.8689C113.601 18.9109 113.31 19.0024 113.043 19.1397C112.776 19.277 112.558 19.4677 112.39 19.708C112.222 19.9483 112.138 20.2687 112.138 20.6692C112.138 21.0201 112.195 21.3138 112.309 21.5579C112.424 21.7982 112.588 21.9928 112.799 22.1377C113.009 22.2826 113.265 22.3894 113.559 22.4543C113.857 22.5229 114.189 22.5535 114.564 22.5535Z" fill="#1D1D1B"/>
<path d="M123.213 23.5681C122.816 23.5567 122.468 23.5033 122.17 23.4155C121.872 23.3278 121.628 23.1867 121.425 22.9998C121.227 22.8129 121.074 22.5726 120.971 22.2751C120.868 21.9814 120.818 21.6076 120.818 21.1613V9.57752L121.995 9.36011V21.1232C121.995 21.4131 122.021 21.6457 122.075 21.8212C122.128 21.9966 122.212 22.1339 122.319 22.2369C122.43 22.3399 122.571 22.4162 122.747 22.462C122.923 22.5116 123.129 22.5535 123.374 22.5878L123.213 23.5681Z" fill="#1D1D1B"/>
<path d="M127.836 23.5681C127.439 23.5567 127.091 23.5033 126.793 23.4155C126.495 23.3278 126.25 23.1867 126.048 22.9998C125.849 22.8129 125.696 22.5726 125.593 22.2751C125.49 21.9814 125.44 21.6076 125.44 21.1613V9.57752L126.617 9.36011V21.1232C126.617 21.4131 126.644 21.6457 126.697 21.8212C126.751 21.9966 126.835 22.1339 126.942 22.2369C127.053 22.3399 127.194 22.4162 127.37 22.462C127.545 22.5116 127.752 22.5535 127.996 22.5878L127.836 23.5681Z" fill="#1D1D1B"/>
</svg>
