<svg width="45" height="45" viewBox="0 0 45 45" fill="none" xmlns="http://www.w3.org/2000/svg">
<circle cx="22.5" cy="22.5" r="22.5" fill="#0561FC"/>
<path d="M17 26V17H15.5V15.5H17.75C17.9489 15.5 18.1397 15.579 18.2803 15.7197C18.421 15.8603 18.5 16.0511 18.5 16.25V25.25H27.8285L29.3285 19.25H20V17.75H30.29C30.404 17.75 30.5165 17.776 30.619 17.826C30.7214 17.876 30.8111 17.9487 30.8813 18.0386C30.9514 18.1285 31.0001 18.2331 31.0237 18.3447C31.0473 18.4562 31.0452 18.5717 31.0175 18.6822L29.1425 26.1822C29.1019 26.3444 29.0082 26.4884 28.8764 26.5913C28.7446 26.6941 28.5822 26.75 28.415 26.75H17.75C17.5511 26.75 17.3603 26.671 17.2197 26.5303C17.079 26.3897 17 26.1989 17 26ZM18.5 31.25C18.1022 31.25 17.7206 31.092 17.4393 30.8107C17.158 30.5294 17 30.1478 17 29.75C17 29.3522 17.158 28.9706 17.4393 28.6893C17.7206 28.408 18.1022 28.25 18.5 28.25C18.8978 28.25 19.2794 28.408 19.5607 28.6893C19.842 28.9706 20 29.3522 20 29.75C20 30.1478 19.842 30.5294 19.5607 30.8107C19.2794 31.092 18.8978 31.25 18.5 31.25ZM27.5 31.25C27.1022 31.25 26.7206 31.092 26.4393 30.8107C26.158 30.5294 26 30.1478 26 29.75C26 29.3522 26.158 28.9706 26.4393 28.6893C26.7206 28.408 27.1022 28.25 27.5 28.25C27.8978 28.25 28.2794 28.408 28.5607 28.6893C28.842 28.9706 29 29.3522 29 29.75C29 30.1478 28.842 30.5294 28.5607 30.8107C28.2794 31.092 27.8978 31.25 27.5 31.25Z" fill="#F6F6F6"/>
<circle cx="36.5" cy="5.5" r="5.5" fill="#EC002A"/>
</svg>
