<svg width="36" height="36" viewBox="0 0 36 36" fill="none" xmlns="http://www.w3.org/2000/svg">
<path d="M28.9531 9.80052L25.7581 6.60892C25.3681 6.21897 24.8461 6 24.2941 6C23.7421 6 23.2201 6.21597 22.8301 6.60892L19.3891 10.0435C18.9991 10.4334 18.7801 10.9584 18.7801 11.5103C18.7801 12.0652 18.9961 12.5842 19.3891 12.9771L22.0771 15.6678C21.4647 17.0944 20.5849 18.3905 19.4851 19.4863C18.3841 20.5932 17.097 21.4661 15.669 22.084L12.981 19.3933C12.591 19.0034 12.069 18.7844 11.517 18.7844C11.2448 18.7834 10.975 18.8367 10.7236 18.9413C10.4722 19.0459 10.2442 19.1995 10.053 19.3933L6.609 22.8279C6.219 23.2178 6 23.7428 6 24.2947C6 24.8496 6.216 25.3686 6.609 25.7615L9.80102 28.9531C10.467 29.619 11.385 30 12.327 30C12.522 30 12.711 29.985 12.903 29.952C16.875 29.2981 20.8171 27.1834 24.0001 24.0037C27.1801 20.8181 29.2921 16.8766 29.9521 12.9021C30.1411 11.7743 29.7631 10.6134 28.9531 9.80052ZM27.8251 12.5452C27.2401 16.0817 25.3381 19.6093 22.4731 22.4739C19.6081 25.3386 16.083 27.2403 12.546 27.8253C12.102 27.9003 11.646 27.7503 11.322 27.4293L8.18701 24.2947L11.511 20.9681L15.105 24.5677L15.132 24.5947L15.78 24.3547C17.7448 23.6324 19.5291 22.4916 21.009 21.0113C22.489 19.531 23.6294 17.7466 24.3511 15.7818L24.5911 15.1339L20.9671 11.5133L24.2911 8.18673L27.4261 11.3213C27.7501 11.6453 27.9001 12.1012 27.8251 12.5452Z" fill="#0561FC"/>
</svg>
