<svg width="18" height="18" viewBox="0 0 18 18" fill="none" xmlns="http://www.w3.org/2000/svg">
<path d="M17.4 7.79641H18V7.62961L17.9148 7.48681L17.4 7.79641ZM0.6 7.79641L0.0852 7.48681L0 7.63201V7.79761H0.6V7.79641ZM3.1512 3.54721L2.6364 3.23761L3.1512 3.54721ZM14.8488 3.54721L15.3636 3.23761L14.8488 3.54721ZM4.2 13.8V13.2H3.6V13.8H4.2ZM13.8 13.8H14.4V13.2H13.8V13.8ZM16.8 7.79641V15H18V7.79641H16.8ZM1.1148 8.10481L3.666 3.85681L2.6364 3.23761L0.0852 7.48801L1.1148 8.10601V8.10481ZM6.2376 2.40001H11.7624V1.20001H6.2376V2.40001ZM14.334 3.85561L16.8852 8.10481L17.9148 7.48681L15.3636 3.23881L14.334 3.85561ZM3 15.6H1.8V16.8H3V15.6ZM3.6 13.8V15H4.8V13.8H3.6ZM16.2 15.6H15V16.8H16.2V15.6ZM14.4 15V13.8H13.2V15H14.4ZM13.8 13.2H4.2V14.4H13.8V13.2ZM1.2 15V7.79641H0V15H1.2ZM15 15.6C14.8409 15.6 14.6883 15.5368 14.5757 15.4243C14.4632 15.3118 14.4 15.1591 14.4 15H13.2C13.2 15.4774 13.3896 15.9352 13.7272 16.2728C14.0648 16.6104 14.5226 16.8 15 16.8V15.6ZM3 16.8C3.47739 16.8 3.93523 16.6104 4.27279 16.2728C4.61036 15.9352 4.8 15.4774 4.8 15H3.6C3.6 15.1591 3.53679 15.3118 3.42426 15.4243C3.31174 15.5368 3.15913 15.6 3 15.6V16.8ZM1.8 15.6C1.64087 15.6 1.48826 15.5368 1.37574 15.4243C1.26321 15.3118 1.2 15.1591 1.2 15H0C0 15.4774 0.189642 15.9352 0.527208 16.2728C0.864773 16.6104 1.32261 16.8 1.8 16.8V15.6ZM11.7624 2.40001C12.2802 2.40007 12.7892 2.53416 13.2398 2.78923C13.6905 3.04431 14.0674 3.41168 14.334 3.85561L15.3636 3.23761C14.9903 2.61601 14.4624 2.10165 13.8313 1.74458C13.2003 1.38751 12.4875 1.1999 11.7624 1.20001V2.40001ZM3.666 3.85561C3.93257 3.41168 4.30952 3.04431 4.76015 2.78923C5.21079 2.53416 5.71978 2.40007 6.2376 2.40001V1.20001C5.51272 1.20011 4.8002 1.38782 4.16935 1.74487C3.53851 2.10193 3.01081 2.61619 2.6376 3.23761L3.666 3.85561ZM16.8 15C16.8 15.1591 16.7368 15.3118 16.6243 15.4243C16.5117 15.5368 16.3591 15.6 16.2 15.6V16.8C16.6774 16.8 17.1352 16.6104 17.4728 16.2728C17.8104 15.9352 18 15.4774 18 15H16.8ZM2.4 12H6V10.8H2.4V12ZM15.6 10.8H12V12H15.6V10.8ZM3.6 8.40001H14.4V7.20001H3.6V8.40001Z" fill="white"/>
</svg>
