<svg width="68" height="68" viewBox="0 0 68 68" fill="none" xmlns="http://www.w3.org/2000/svg">
<g clip-path="url(#clip0)">
<path d="M31.1667 56.5109C24.6953 55.7792 18.7491 52.5994 14.5472 47.6237C10.3454 42.6479 8.20635 36.2531 8.56871 29.7506C8.93107 23.2481 11.7674 17.1306 16.496 12.6525C21.2247 8.17434 27.4874 5.67493 34 5.66675C40.5206 5.66201 46.7953 8.15537 51.5343 12.6343C56.2732 17.1132 59.1163 23.2374 59.4791 29.7479C59.8419 36.2585 57.6968 42.6606 53.4849 47.6383C49.2729 52.6161 43.3141 55.7912 36.8333 56.5109V68.0001H31.1667V56.5109Z" fill="#0561FC"/>
<path d="M21.9188 22.842L34.4687 16L46.9244 22.842L43.3502 24.794L34.4687 20.1833L25.7386 24.794L21.9188 22.842Z" fill="#F6F6F6"/>
<path d="M21.9188 39.1544L34.4687 45.9998L46.9244 39.1544L43.3502 37.2024L34.4687 41.8131L25.7386 37.2024L21.9188 39.1544Z" fill="#F6F6F6"/>
<path d="M21 37.4079L24.49 35.5939V31.4543L34.3711 36.7987L37.5885 35.0554L24.5203 27.8263V26.4431L21 24.5315V37.4079Z" fill="#F6F6F6"/>
<path d="M47.6647 24.5315L44.1714 26.3455V30.485L34.2936 25.1406L31.0762 26.884L44.1444 34.113V35.4963L47.6647 37.4079V24.5315Z" fill="#F6F6F6"/>
</g>
<defs>
<clipPath id="clip0">
<rect width="68" height="68" fill="white"/>
</clipPath>
</defs>
</svg>
