<svg width="36" height="36" viewBox="0 0 36 36" fill="none" xmlns="http://www.w3.org/2000/svg">
<path d="M18 3C15.0333 3 12.1332 3.87973 9.66645 5.52796C7.19972 7.17618 5.27713 9.51886 4.14181 12.2597C3.0065 15.0006 2.70945 18.0166 3.28823 20.9264C3.86701 23.8361 5.29562 26.5088 7.3934 28.6066C9.49119 30.7044 12.1639 32.133 15.0737 32.7118C17.9834 33.2906 20.9994 32.9935 23.7403 31.8582C26.4811 30.7229 28.8238 28.8003 30.472 26.3336C32.1203 23.8668 33 20.9667 33 18C33 16.0302 32.612 14.0796 31.8582 12.2597C31.1044 10.4399 29.9995 8.78628 28.6066 7.3934C27.2137 6.00052 25.5601 4.89563 23.7403 4.14181C21.9204 3.38799 19.9698 3 18 3ZM18 30C15.6266 30 13.3066 29.2962 11.3332 27.9776C9.35977 26.6591 7.8217 24.7849 6.91345 22.5922C6.0052 20.3995 5.76756 17.9867 6.23058 15.6589C6.69361 13.3311 7.83649 11.1929 9.51472 9.51472C11.193 7.83649 13.3312 6.6936 15.6589 6.23058C17.9867 5.76755 20.3995 6.00519 22.5922 6.91345C24.7849 7.8217 26.6591 9.35977 27.9776 11.3332C29.2962 13.3065 30 15.6266 30 18C30 21.1826 28.7357 24.2348 26.4853 26.4853C24.2349 28.7357 21.1826 30 18 30Z" fill="#C6C6C6"/>
<path d="M18 9.0001C16.6076 9.0001 15.2723 9.55322 14.2877 10.5378C13.3031 11.5224 12.75 12.8577 12.75 14.2501C12.75 14.6479 12.908 15.0295 13.1893 15.3108C13.4706 15.5921 13.8522 15.7501 14.25 15.7501C14.6478 15.7501 15.0294 15.5921 15.3107 15.3108C15.592 15.0295 15.75 14.6479 15.75 14.2501C15.75 13.8051 15.882 13.3701 16.1292 13.0001C16.3764 12.6301 16.7278 12.3417 17.139 12.1714C17.5501 12.0011 18.0025 11.9565 18.439 12.0433C18.8754 12.1302 19.2763 12.3444 19.591 12.6591C19.9057 12.9738 20.1199 13.3747 20.2068 13.8111C20.2936 14.2476 20.249 14.7 20.0787 15.1111C19.9084 15.5223 19.62 15.8737 19.25 16.1209C18.88 16.3681 18.445 16.5001 18 16.5001C17.6022 16.5001 17.2206 16.6581 16.9393 16.9394C16.658 17.2207 16.5 17.6023 16.5 18.0001V21.0001C16.5 21.3979 16.658 21.7795 16.9393 22.0608C17.2206 22.3421 17.6022 22.5001 18 22.5001C18.3978 22.5001 18.7794 22.3421 19.0607 22.0608C19.342 21.7795 19.5 21.3979 19.5 21.0001V19.2601C20.7122 18.9061 21.7555 18.1259 22.4377 17.0633C23.12 16.0006 23.3951 14.7272 23.2124 13.4777C23.0297 12.2282 22.4016 11.0868 21.4437 10.264C20.4858 9.44114 19.2628 8.99226 18 9.0001Z" fill="#C6C6C6"/>
<path d="M18 27C18.8284 27 19.5 26.3284 19.5 25.5C19.5 24.6716 18.8284 24 18 24C17.1716 24 16.5 24.6716 16.5 25.5C16.5 26.3284 17.1716 27 18 27Z" fill="#C6C6C6"/>
</svg>
