<svg width="68" height="68" viewBox="0 0 68 68" fill="none" xmlns="http://www.w3.org/2000/svg">
<path d="M56.6667 56.6667C59.0713 56.6667 61.3774 55.7114 63.0778 54.0111C64.7781 52.3108 65.7333 50.0046 65.7333 47.6V38.5333C65.7333 36.1287 64.7781 33.8226 63.0778 32.1222C61.3774 30.4219 59.0713 29.4667 56.6667 29.4667C55.4643 29.4667 54.3113 29.9443 53.4611 30.7945C52.6109 31.6446 52.1333 32.7977 52.1333 34V52.1333C52.1333 53.3357 52.6109 54.4887 53.4611 55.3389C54.3113 56.1891 55.4643 56.6667 56.6667 56.6667ZM56.6667 56.6667C56.6667 59.0713 55.7114 61.3774 54.0111 63.0778C52.3108 64.7781 50.0046 65.7333 47.6 65.7333H36.2667M65.7333 45.3333V34C65.7333 29.8327 64.9125 25.7062 63.3178 21.8562C61.723 18.0061 59.3856 14.5079 56.4388 11.5611C53.4921 8.61444 49.9939 6.27698 46.1438 4.68223C42.2938 3.08748 38.1673 2.26667 34 2.26667C29.8327 2.26667 25.7062 3.08748 21.8562 4.68223C18.0061 6.27698 14.5079 8.61444 11.5611 11.5611C8.61443 14.5079 6.27697 18.0061 4.68222 21.8562C3.08747 25.7062 2.26666 29.8327 2.26666 34V45.3333M11.3333 56.6667C12.5356 56.6667 13.6887 56.1891 14.5389 55.3389C15.389 54.4887 15.8667 53.3357 15.8667 52.1333V34C15.8667 32.7977 15.389 31.6446 14.5389 30.7945C13.6887 29.9443 12.5356 29.4667 11.3333 29.4667C8.9287 29.4667 6.62256 30.4219 4.92223 32.1222C3.2219 33.8226 2.26666 36.1287 2.26666 38.5333V47.6C2.26666 50.0046 3.2219 52.3108 4.92223 54.0111C6.62256 55.7114 8.9287 56.6667 11.3333 56.6667Z" stroke="white"/>
</svg>
