<svg width="19" height="19" viewBox="0 0 19 19" fill="none" xmlns="http://www.w3.org/2000/svg">
<path d="M3.16667 1.9C3.16667 2.23594 3.03322 2.55812 2.79567 2.79567C2.55812 3.03321 2.23594 3.16666 1.9 3.16666C1.56406 3.16666 1.24188 3.03321 1.00433 2.79567C0.766787 2.55812 0.633335 2.23594 0.633335 1.9C0.633335 1.56406 0.766787 1.24188 1.00433 1.00433C1.24188 0.766783 1.56406 0.633331 1.9 0.633331C2.23594 0.633331 2.55812 0.766783 2.79567 1.00433C3.03322 1.24188 3.16667 1.56406 3.16667 1.9ZM3.16667 1.9H5.7C6.70782 1.9 7.67437 2.30035 8.38701 3.01299C9.09965 3.72563 9.5 4.69218 9.5 5.7V13.3C9.5 14.3078 9.90036 15.2744 10.613 15.987C11.3256 16.6996 12.2922 17.1 13.3 17.1H15.8333M15.8333 17.1C15.8333 17.4359 15.9668 17.7581 16.2043 17.9957C16.4419 18.2332 16.7641 18.3667 17.1 18.3667C17.4359 18.3667 17.7581 18.2332 17.9957 17.9957C18.2332 17.7581 18.3667 17.4359 18.3667 17.1C18.3667 16.7641 18.2332 16.4419 17.9957 16.2043C17.7581 15.9668 17.4359 15.8333 17.1 15.8333C16.7641 15.8333 16.4419 15.9668 16.2043 16.2043C15.9668 16.4419 15.8333 16.7641 15.8333 17.1Z" stroke="white"/>
</svg>
