<svg width="36" height="36" viewBox="0 0 36 36" xmlns="http://www.w3.org/2000/svg">
<path d="M32.7857 13.3182C31.0714 15.2614 27.8571 17.2045 24.4286 17.2045C21.2143 17.2045 19.2857 16.125 17.5714 15.2614C15.8571 14.6136 14.1429 13.5341 11.3571 13.5341C8.78571 13.5341 6.42857 15.0455 5.14286 16.3409L3 13.1023C4.92857 11.1591 7.92857 9 11.3571 9C14.5714 9 16.5 10.2955 18.2143 10.9432C19.9286 11.5909 21.6429 12.8864 24.4286 12.8864C27 12.8864 29.3571 11.1591 30.6429 9.86364L32.7857 13.3182ZM33 23.8977C31.0714 25.8409 28.0714 28 24.6429 28C21.4286 28 19.5 26.9205 17.7857 26.0568C16.0714 25.4091 14.3571 24.1136 11.5714 24.1136C9 24.1136 6.64286 25.8409 5.35714 27.1364L3.21429 23.6818C5.14286 21.7386 8.14286 19.5795 11.5714 19.5795C14.7857 19.5795 16.7143 20.6591 18.4286 21.5227C20.1429 22.1705 21.8571 23.25 24.6429 23.25C27.2143 23.25 29.5714 21.5227 30.8571 20.2273L33 23.8977Z" fill="inherit"/>
</svg>
