<svg width="36" height="36" viewBox="0 0 36 36" fill="none" xmlns="http://www.w3.org/2000/svg">
<path d="M21.3823 19.8319C21.4152 19.8648 21.4412 19.9037 21.459 19.9466C21.4768 19.9895 21.4859 20.0355 21.4859 20.082C21.4859 20.1284 21.4768 20.1744 21.459 20.2173C21.4412 20.2602 21.4152 20.2991 21.3823 20.332L18.3823 23.332C18.3659 23.3483 18.348 23.363 18.3288 23.3759C18.3239 23.3791 18.3184 23.3812 18.3134 23.3843C18.2989 23.3934 18.2838 23.4015 18.2681 23.4084C18.2609 23.4115 18.2531 23.4128 18.2457 23.4154C18.2315 23.4208 18.2169 23.4252 18.2021 23.4286C18.1559 23.438 18.1084 23.438 18.0622 23.4286C18.0474 23.4252 18.0328 23.4208 18.0186 23.4154C18.0111 23.4128 18.0034 23.4115 17.9962 23.4084C17.9805 23.4015 17.9654 23.3934 17.9509 23.3843C17.9459 23.3813 17.9404 23.3791 17.9355 23.3759C17.9163 23.363 17.8984 23.3483 17.8821 23.332L14.882 20.332C14.8169 20.2654 14.7807 20.1759 14.7812 20.0828C14.7817 19.9897 14.8189 19.9006 14.8848 19.8348C14.9506 19.7689 15.0397 19.7317 15.1328 19.7312C15.2259 19.7307 15.3154 19.7669 15.382 19.8319L17.7786 22.2285V16.0107C17.7786 15.9169 17.8158 15.827 17.8821 15.7607C17.9484 15.6944 18.0384 15.6571 18.1321 15.6571C18.2259 15.6571 18.3158 15.6944 18.3822 15.7607C18.4485 15.827 18.4857 15.9169 18.4857 16.0107V22.2285L20.8823 19.8319C20.9151 19.7991 20.9541 19.7731 20.997 19.7553C21.0399 19.7375 21.0859 19.7284 21.1323 19.7284C21.1788 19.7284 21.2247 19.7375 21.2676 19.7553C21.3105 19.7731 21.3495 19.7991 21.3823 19.8319ZM26.2643 13.1821V25.2036C26.264 25.4848 26.1521 25.7544 25.9533 25.9533C25.7544 26.1521 25.4848 26.264 25.2036 26.2643H11.0607C10.7795 26.264 10.5099 26.1521 10.311 25.9533C10.1122 25.7544 10.0003 25.4848 10 25.2036V13.1821C10.0002 13.1562 10.0032 13.1304 10.009 13.1052C10.0105 13.0983 10.0133 13.0919 10.0152 13.0851C10.0201 13.0672 10.0264 13.0497 10.0341 13.0328C10.0354 13.03 10.0359 13.0268 10.0373 13.024L11.4516 10.1954C11.481 10.1367 11.5261 10.0873 11.582 10.0528C11.6378 10.0183 11.7022 9.99999 11.7679 10H24.4964C24.5621 9.99999 24.6264 10.0183 24.6823 10.0528C24.7382 10.0873 24.7833 10.1366 24.8127 10.1953L26.227 13.0239C26.2284 13.0268 26.2288 13.03 26.2302 13.0328C26.2378 13.0497 26.2442 13.0671 26.2491 13.085C26.251 13.0918 26.2538 13.0983 26.2553 13.1052C26.2611 13.1304 26.2641 13.1562 26.2643 13.1821ZM10.9257 12.8286H25.3386L24.2779 10.7071H11.9864L10.9257 12.8286ZM25.5571 25.2036V13.5357H10.7071V25.2036C10.7072 25.2973 10.7445 25.3872 10.8108 25.4535C10.8771 25.5198 10.967 25.557 11.0607 25.5571H25.2036C25.2973 25.557 25.3872 25.5198 25.4535 25.4535C25.5198 25.3872 25.5571 25.2973 25.5571 25.2036Z" fill="#0561FC"/>
</svg>
