<svg width="36" height="36" viewBox="0 0 36 36" fill="none" xmlns="http://www.w3.org/2000/svg">
<path d="M13.5 4.5H6.75C6.15326 4.5 5.58097 4.73705 5.15901 5.15901C4.73705 5.58097 4.5 6.15326 4.5 6.75V13.5C4.5 14.0967 4.73705 14.669 5.15901 15.091C5.58097 15.5129 6.15326 15.75 6.75 15.75H13.5C14.0967 15.75 14.669 15.5129 15.091 15.091C15.5129 14.669 15.75 14.0967 15.75 13.5V6.75C15.75 6.15326 15.5129 5.58097 15.091 5.15901C14.669 4.73705 14.0967 4.5 13.5 4.5ZM13.5 13.5H6.75V6.75H13.5V13.5Z" fill="#0561FC"/>
<path d="M29.25 4.5H22.5C21.9033 4.5 21.331 4.73705 20.909 5.15901C20.4871 5.58097 20.25 6.15326 20.25 6.75V13.5C20.25 14.0967 20.4871 14.669 20.909 15.091C21.331 15.5129 21.9033 15.75 22.5 15.75H29.25C29.8467 15.75 30.419 15.5129 30.841 15.091C31.2629 14.669 31.5 14.0967 31.5 13.5V6.75C31.5 6.15326 31.2629 5.58097 30.841 5.15901C30.419 4.73705 29.8467 4.5 29.25 4.5ZM29.25 13.5H22.5V6.75H29.25V13.5Z" fill="#0561FC"/>
<path d="M13.5 20.25H6.75C6.15326 20.25 5.58097 20.4871 5.15901 20.909C4.73705 21.331 4.5 21.9033 4.5 22.5V29.25C4.5 29.8467 4.73705 30.419 5.15901 30.841C5.58097 31.2629 6.15326 31.5 6.75 31.5H13.5C14.0967 31.5 14.669 31.2629 15.091 30.841C15.5129 30.419 15.75 29.8467 15.75 29.25V22.5C15.75 21.9033 15.5129 21.331 15.091 20.909C14.669 20.4871 14.0967 20.25 13.5 20.25ZM13.5 29.25H6.75V22.5H13.5V29.25Z" fill="#0561FC"/>
<path d="M29.25 20.25H22.5C21.9033 20.25 21.331 20.4871 20.909 20.909C20.4871 21.331 20.25 21.9033 20.25 22.5V29.25C20.25 29.8467 20.4871 30.419 20.909 30.841C21.331 31.2629 21.9033 31.5 22.5 31.5H29.25C29.8467 31.5 30.419 31.2629 30.841 30.841C31.2629 30.419 31.5 29.8467 31.5 29.25V22.5C31.5 21.9033 31.2629 21.331 30.841 20.909C30.419 20.4871 29.8467 20.25 29.25 20.25ZM29.25 29.25H22.5V22.5H29.25V29.25Z" fill="#0561FC"/>
</svg>
