<svg width="78" height="23" viewBox="0 0 78 23" fill="none" xmlns="http://www.w3.org/2000/svg">
<path d="M12.9181 5.36047L11.4921 2.88751L10.5651 1.24363L10.4796 1.07209L9.86637 0L9.25317 1.07209L8.75406 1.94406L1.7094 14.1374L0.097967 16.9248C-0.030377 17.1392 -0.030377 17.4108 0.097967 17.6395L1.52401 20.1268L3.16396 23L3.77716 21.9279L12.9324 6.06091C13.0464 5.86078 13.0464 5.57489 12.9181 5.36047Z" fill="#D2113A"/>
<path d="M19.6196 16.9248L16.739 11.9503L16.5393 11.5929H12.5464H11.2059C10.6498 11.5929 10.3075 12.1933 10.5927 12.665L11.705 14.5805L15.9404 21.9279L16.5536 23L17.1668 21.9279L18.7497 19.1547L19.6196 17.6395C19.7479 17.4251 19.7479 17.1535 19.6196 16.9248Z" fill="#D2113A"/>
<path d="M28.6463 17.4822C28.8032 17.6109 28.8887 17.7967 28.8887 18.0254C28.8887 18.2541 28.8032 18.4399 28.6463 18.5686C28.4894 18.6973 28.2755 18.7687 27.9903 18.7687H27.4057V19.4549H27.1775V17.2678H27.9903C28.2741 17.2678 28.488 17.3393 28.6463 17.4822ZM28.4752 18.4257C28.5893 18.3256 28.6463 18.1969 28.6463 18.0254C28.6463 17.8539 28.5893 17.7109 28.4752 17.6252C28.3611 17.5251 28.19 17.4822 27.9761 17.4822H27.3914V18.5686H27.9761C28.2028 18.5686 28.3611 18.5114 28.4752 18.4257Z" fill="#CBCBCB"/>
<path d="M31.2562 19.2691V19.4693H29.7161V17.2822H31.2134V17.4823H29.9585V18.2542H31.0851V18.4543H29.9585V19.2691H31.2562Z" fill="#CBCBCB"/>
<path d="M33.6374 19.4549L33.1383 18.7544C33.0812 18.7544 33.0242 18.7687 32.9671 18.7687H32.3825V19.4549H32.1543V17.2678H32.9671C33.2381 17.2678 33.4663 17.3393 33.6231 17.4679C33.78 17.5966 33.8656 17.7824 33.8656 18.0111C33.8656 18.1826 33.8228 18.3256 33.7372 18.4399C33.6516 18.5543 33.5233 18.6401 33.3664 18.6973L33.8941 19.4406L33.6374 19.4549ZM33.452 18.4257C33.5661 18.3256 33.6231 18.1969 33.6231 18.0254C33.6231 17.8539 33.5661 17.7109 33.452 17.6252C33.3379 17.5251 33.1668 17.4822 32.9529 17.4822H32.3825V18.5829H32.9671C33.1668 18.5686 33.3365 18.5114 33.452 18.4257Z" fill="#CBCBCB"/>
<path d="M34.9638 17.4823V18.34H36.0903V18.5401H34.9638V19.4693H34.7356V17.2822H36.2329V17.4823H34.9638Z" fill="#CBCBCB"/>
<path d="M37.3879 19.3405C37.2168 19.2405 37.0742 19.1118 36.9744 18.9403C36.8746 18.7688 36.8318 18.5829 36.8318 18.3685C36.8318 18.1541 36.8746 17.9683 36.9744 17.7967C37.0742 17.6252 37.2168 17.4965 37.3879 17.3965C37.5591 17.2964 37.7587 17.2535 37.9726 17.2535C38.1865 17.2535 38.3862 17.2964 38.5573 17.3965C38.7284 17.4965 38.871 17.6252 38.9709 17.7967C39.0707 17.9683 39.1135 18.1541 39.1135 18.3685C39.1135 18.5829 39.0707 18.7688 38.9709 18.9403C38.871 19.1118 38.7284 19.2405 38.5573 19.3405C38.3862 19.4406 38.1865 19.4835 37.9726 19.4835C37.7587 19.4835 37.5591 19.4263 37.3879 19.3405ZM38.4432 19.1547C38.5858 19.0832 38.6856 18.9689 38.7712 18.8259C38.8568 18.683 38.8853 18.54 38.8853 18.3685C38.8853 18.197 38.8425 18.0397 38.7712 17.9111C38.6856 17.7681 38.5858 17.6681 38.4432 17.5823C38.3006 17.5108 38.1437 17.4679 37.9726 17.4679C37.8015 17.4679 37.6446 17.5108 37.502 17.5823C37.3594 17.6538 37.2453 17.7681 37.174 17.9111C37.0885 18.054 37.06 18.197 37.06 18.3685C37.06 18.54 37.1027 18.6973 37.174 18.8259C37.2596 18.9689 37.3594 19.0689 37.502 19.1547C37.6446 19.2262 37.8015 19.2691 37.9726 19.2691C38.1437 19.2691 38.3006 19.2262 38.4432 19.1547Z" fill="#CBCBCB"/>
<path d="M41.465 19.4549L40.9659 18.7544C40.9089 18.7544 40.8518 18.7687 40.7948 18.7687H40.2101V19.4549H39.9819V17.2678H40.7948C41.0657 17.2678 41.2939 17.3393 41.4508 17.4679C41.6076 17.5966 41.6932 17.7824 41.6932 18.0111C41.6932 18.1826 41.6504 18.3256 41.5649 18.4399C41.4793 18.5543 41.3509 18.6401 41.1941 18.6973L41.7217 19.4406L41.465 19.4549ZM41.2811 18.4257C41.3952 18.3256 41.4522 18.1969 41.4522 18.0254C41.4522 17.8539 41.3952 17.7109 41.2811 17.6252C41.167 17.5251 40.9959 17.4822 40.782 17.4822H40.1973V18.5829H40.782C40.9959 18.5686 41.167 18.5114 41.2811 18.4257Z" fill="#CBCBCB"/>
<path d="M44.8318 17.2678V19.4549H44.6179V17.7109L43.7622 19.1833H43.6481L42.7925 17.7252V19.4549H42.5786V17.2678H42.764L43.7052 18.8831L44.6464 17.2678H44.8318Z" fill="#CBCBCB"/>
<path d="M47.2562 18.8688H46.044L45.7873 19.4549H45.5449L46.5432 17.2678H46.7713L47.7696 19.4549H47.5271L47.2562 18.8688ZM47.1692 18.6973L46.6415 17.5251L46.1139 18.6973H47.1692Z" fill="#CBCBCB"/>
<path d="M50.2793 17.2678V19.4549H50.094L48.6964 17.6823V19.4549H48.4683V17.2678H48.6536L50.0512 19.0403V17.2678H50.2793Z" fill="#CBCBCB"/>
<path d="M51.6912 19.3405C51.52 19.2405 51.3774 19.1118 51.2776 18.9403C51.1778 18.7688 51.135 18.5829 51.135 18.3685C51.135 18.1541 51.1778 17.9683 51.2776 17.7967C51.3774 17.6252 51.5058 17.4965 51.6912 17.3965C51.8623 17.2964 52.0619 17.2535 52.2758 17.2535C52.4327 17.2535 52.5896 17.2821 52.7179 17.3393C52.8605 17.3965 52.9746 17.4679 53.0602 17.5823L52.9176 17.7252C52.7464 17.5537 52.5325 17.4679 52.2758 17.4679C52.1047 17.4679 51.9479 17.5108 51.8053 17.5823C51.6626 17.6681 51.5486 17.7681 51.4773 17.9111C51.3917 18.054 51.3632 18.197 51.3632 18.3685C51.3632 18.54 51.406 18.6973 51.4773 18.8259C51.5628 18.9689 51.6626 19.0689 51.8053 19.1547C51.9479 19.2405 52.1047 19.2691 52.2758 19.2691C52.5325 19.2691 52.7464 19.1833 52.9176 19.0118L53.0602 19.1547C52.9604 19.2548 52.8463 19.3405 52.7037 19.3977C52.5611 19.4549 52.4185 19.4835 52.2473 19.4835C52.0619 19.4835 51.8623 19.4263 51.6912 19.3405Z" fill="#CBCBCB"/>
<path d="M55.4559 19.2691V19.4693H53.9158V17.2822H55.4131V17.4823H54.1439V18.2542H55.2705V18.4543H54.1439V19.2691H55.4559Z" fill="#CBCBCB"/>
<path d="M59.7627 17.2678V19.4549H59.5488V17.7109L58.6931 19.1833H58.5791L57.7234 17.7252V19.4549H57.5095V17.2678H57.6949L58.6361 18.8831L59.5773 17.2678H59.7627Z" fill="#CBCBCB"/>
<path d="M62.1727 18.8688H60.9605L60.7039 19.4549H60.4614L61.4597 17.2678H61.6878L62.6861 19.4549H62.4436L62.1727 18.8688ZM62.0871 18.6973L61.5595 17.5251L61.0318 18.6973H62.0871Z" fill="#CBCBCB"/>
<path d="M64.8679 19.4549L64.3687 18.7544C64.3117 18.7544 64.2547 18.7687 64.1976 18.7687H63.6129V19.4549H63.3848V17.2678H64.1976C64.4686 17.2678 64.6967 17.3393 64.8536 17.4679C65.0105 17.5966 65.096 17.7824 65.096 18.0111C65.096 18.1826 65.0532 18.3256 64.9677 18.4399C64.8821 18.5543 64.7538 18.6401 64.5969 18.6973L65.1245 19.4406L64.8679 19.4549ZM64.681 18.4257C64.7951 18.3256 64.8522 18.1969 64.8522 18.0254C64.8522 17.8539 64.7951 17.7109 64.681 17.6252C64.567 17.5251 64.3958 17.4822 64.1819 17.4822H63.6115V18.5829H64.1962C64.4115 18.5686 64.567 18.5114 64.681 18.4257Z" fill="#CBCBCB"/>
<path d="M66.6505 18.4257L66.2084 18.8831V19.4549H65.9802V17.2678H66.2084V18.5829L67.4918 17.2678H67.7628L66.8216 18.2541L67.8341 19.4549H67.5631L66.6505 18.4257Z" fill="#CBCBCB"/>
<path d="M70.0728 19.2691V19.4693H68.5327V17.2822H70.0301V17.4823H68.7609V18.2542H69.8875V18.4543H68.7609V19.2691H70.0728Z" fill="#CBCBCB"/>
<path d="M71.3836 17.4823H70.6135V17.2822H72.3818V17.4823H71.6118V19.4693H71.3836V17.4823Z" fill="#CBCBCB"/>
<path d="M73.0818 17.2678H73.31V19.4549H73.0818V17.2678Z" fill="#CBCBCB"/>
<path d="M76.1907 17.2678V19.4549H76.0053L74.6078 17.6823V19.4549H74.3796V17.2678H74.565L75.9625 19.0403V17.2678H76.1907Z" fill="#CBCBCB"/>
<path d="M78.7717 18.3685H78.9856V19.1976C78.8857 19.2834 78.7574 19.3549 78.629 19.3977C78.5007 19.4406 78.3438 19.4692 78.187 19.4692C77.9731 19.4692 77.7734 19.4263 77.6023 19.3263C77.4312 19.2262 77.2886 19.0976 77.1887 18.926C77.0889 18.7545 77.0461 18.5687 77.0461 18.3542C77.0461 18.1398 77.0889 17.954 77.1887 17.7825C77.2886 17.6109 77.4312 17.4823 77.6023 17.3822C77.7734 17.2821 77.9731 17.2393 78.187 17.2393C78.3581 17.2393 78.5007 17.2678 78.6433 17.325C78.7859 17.3822 78.9 17.4537 78.9998 17.5537L78.8572 17.6967C78.6861 17.5252 78.4722 17.4394 78.2012 17.4394C78.0301 17.4394 77.859 17.4823 77.7164 17.5537C77.5738 17.6252 77.4597 17.7396 77.3884 17.8825C77.3028 18.0255 77.26 18.1684 77.26 18.3399C77.26 18.5115 77.3028 18.6687 77.3884 18.7974C77.474 18.9403 77.5738 19.0404 77.7164 19.1261C77.859 19.2119 78.0159 19.2405 78.187 19.2405C78.4151 19.2405 78.6005 19.1833 78.7574 19.069L78.7717 18.3685Z" fill="#CBCBCB"/>
<path d="M33.7517 11.4357H28.7891L27.7623 13.78H26.3933L30.6287 4.41705H31.9549L36.1902 13.78H34.7927L33.7517 11.4357ZM33.2954 10.3636L31.2704 5.78933L29.2597 10.3636H33.2954Z" fill="white"/>
<path d="M38.3721 4.41705H42.308C43.2919 4.41705 44.1761 4.61717 44.9319 5.00312C45.7019 5.38908 46.2866 5.94657 46.7144 6.6613C47.1423 7.37603 47.3419 8.17652 47.3419 9.10567C47.3419 10.0205 47.128 10.8353 46.7144 11.55C46.3009 12.2648 45.7019 12.808 44.9319 13.2082C44.1618 13.5942 43.2919 13.7943 42.308 13.7943H38.3721V4.41705ZM42.2224 12.6221C42.9782 12.6221 43.6484 12.4792 44.2189 12.179C44.7893 11.8788 45.2314 11.4786 45.5451 10.9354C45.8588 10.4065 46.0157 9.79181 46.0157 9.09138C46.0157 8.39094 45.8588 7.77628 45.5451 7.24738C45.2314 6.71848 44.7893 6.30393 44.2189 6.00375C43.6484 5.70356 42.9782 5.56061 42.2224 5.56061H39.7126V12.5936H42.2224V12.6221Z" fill="white"/>
<path d="M63.0855 4.41705L59.9625 13.78H58.565L56.0123 6.30393L53.4597 13.78H52.0337L48.9106 4.41705H50.2796L52.8037 12.0218L55.4277 4.41705H56.6541L59.2352 12.0647L61.8163 4.41705C61.8163 4.41705 63.0855 4.41705 63.0855 4.41705Z" fill="white"/>
<path d="M65.5239 4.41705H66.8644V13.78H65.5239V4.41705Z" fill="white"/>
<path d="M78.4867 4.41705V13.78H77.3887L71.7843 6.80424V13.78H70.4438V4.41705H71.5419L77.1463 11.3928V4.41705H78.4867Z" fill="white"/>
</svg>
