<?xml version="1.0" encoding="utf-8"?><svg viewBox="0 0 53 50" xmlns="http://www.w3.org/2000/svg" xmlns:xlink="http://www.w3.org/1999/xlink"><style>:root>svg{display:none}:root>svg:target{display:block}</style><svg fill="none" viewBox="0 0 23 13" id="Vector" xmlns="http://www.w3.org/2000/svg"><path d="M16.234 12.547L22.28 6.5 16.234.452 15.217 1.47 19.53 5.78H.753V7.22H19.53l-4.312 4.312 1.017 1.016z" fill="#fff"/></svg><svg fill="none" viewBox="0 0 50 50" id="arrow" xmlns="http://www.w3.org/2000/svg"><circle cx="25" cy="25" r="25" fill="#0561FC"/><path d="M29.234 31.547L35.28 25.5l-6.047-6.048-1.017 1.017 4.313 4.312H13.753v1.438H32.53l-4.312 4.312 1.017 1.017z" fill="#fff"/></svg><svg fill="none" viewBox="0 0 36 36" id="arrow_open" xmlns="http://www.w3.org/2000/svg"><circle cx="17.5" cy="17.5" r="13.5" fill="#000"/><path d="M12 15.667L17.5 21l5.5-5.333-.687-.667-4.813 4.667L12.687 15l-.687.667z" fill="#fff"/></svg><svg fill="none" viewBox="0 0 36 36" id="arrow_right" xmlns="http://www.w3.org/2000/svg"><circle cx="17.5" cy="17.5" r="13.5" transform="rotate(-90 17.5 17.5)" fill="#000"/><path d="M15.667 23L21 17.5 15.667 12l-.667.687 4.667 4.813L15 22.313l.667.687z" fill="#fff"/></svg><svg fill="none" viewBox="0 0 45 45" id="basket" xmlns="http://www.w3.org/2000/svg"><circle cx="22.5" cy="22.5" r="22.5" fill="#0561FC"/><path d="M17 26v-9h-1.5v-1.5h2.25a.75.75 0 01.75.75v9h9.328l1.5-6H20v-1.5h10.29a.75.75 0 01.727.932l-1.875 7.5a.75.75 0 01-.727.568H17.75A.75.75 0 0117 26zm1.5 5.25a1.5 1.5 0 110-3 1.5 1.5 0 010 3zm9 0a1.5 1.5 0 110-3 1.5 1.5 0 010 3z" fill="#F6F6F6"/></svg><svg fill="none" viewBox="0 0 45 45" id="basket_active" xmlns="http://www.w3.org/2000/svg"><circle cx="22.5" cy="22.5" r="22.5" fill="#0561FC"/><path d="M17 26v-9h-1.5v-1.5h2.25a.75.75 0 01.75.75v9h9.328l1.5-6H20v-1.5h10.29a.75.75 0 01.727.932l-1.875 7.5a.75.75 0 01-.727.568H17.75A.75.75 0 0117 26zm1.5 5.25a1.5 1.5 0 110-3 1.5 1.5 0 010 3zm9 0a1.5 1.5 0 110-3 1.5 1.5 0 010 3z" fill="#F6F6F6"/><circle cx="36.5" cy="5.5" r="5.5" fill="#EC002A"/></svg><svg fill="none" viewBox="0 0 53 16" id="burger" xmlns="http://www.w3.org/2000/svg"><path fill="#000" d="M0 0h53v3H0zM0 13h53v3H0z"/></svg><svg fill="none" viewBox="0 0 40 42" id="burger_exit" xmlns="http://www.w3.org/2000/svg"><path fill="#000" d="M.15 37.477L37.627 0l2.121 2.122L2.272 39.598z"/><path fill="#000" d="M2.138 1.299l37.777 37.776-2.139 2.139L0 3.437z"/></svg><svg fill="none" viewBox="0 0 36 36" id="callback" xmlns="http://www.w3.org/2000/svg"><path d="M28.953 9.8L25.758 6.61a2.064 2.064 0 00-2.928 0l-3.44 3.434a2.07 2.07 0 000 2.934l2.687 2.69a12.163 12.163 0 01-2.592 3.82 12.186 12.186 0 01-3.816 2.597l-2.688-2.69a2.064 2.064 0 00-2.928 0l-3.444 3.434a2.07 2.07 0 000 2.934l3.192 3.191A3.593 3.593 0 0012.327 30c.195 0 .384-.015.576-.048 3.972-.654 7.914-2.769 11.097-5.948 3.18-3.186 5.292-7.127 5.952-11.102a3.575 3.575 0 00-.999-3.101zm-1.128 2.745c-.585 3.537-2.487 7.064-5.352 9.929s-6.39 4.766-9.927 5.351c-.444.075-.9-.075-1.224-.396l-3.135-3.134 3.324-3.327 3.594 3.6.027.027.648-.24a14.438 14.438 0 008.571-8.573l.24-.648-3.624-3.62 3.324-3.327 3.135 3.134c.324.324.474.78.4 1.224z" fill="#0561FC"/></svg><svg fill="none" viewBox="0 0 36 36" id="catalog" xmlns="http://www.w3.org/2000/svg"><path d="M27.7 11.3l-7-7c-.2-.2-.4-.3-.7-.3H10c-1.1 0-2 .9-2 2v24c0 1.1.9 2 2 2h16c1.1 0 2-.9 2-2V12c0-.3-.1-.5-.3-.7zM20 6.4l5.6 5.6H20V6.4zM26 30H10V6h8v6c0 1.1.9 2 2 2h6v16z" fill="#0561FC"/><path d="M12 24h12v2H12v-2zM12 18h12v2H12v-2z" fill="#0561FC"/></svg><svg fill="none" viewBox="0 0 36 36" id="color_metall" xmlns="http://www.w3.org/2000/svg"><path d="M5 5h18.9v18.9H5V5zm27 8.1V32H13.1v-5.4h2.7v2.7h13.5V15.8h-2.7v-2.7H32z" fill="#0561FC"/></svg><svg fill="none" viewBox="0 0 36 36" id="delete" xmlns="http://www.w3.org/2000/svg"><path fill="#000" d="M8.078 26.368L27.446 7l1.096 1.096L9.174 27.464z"/><path fill="#000" d="M9.105 7.671l19.523 19.523-1.106 1.105L8 8.777z"/></svg><svg fill="none" viewBox="0 0 36 36" id="delivery_box" xmlns="http://www.w3.org/2000/svg"><path d="M9.567 13.964l7.933-3.397 7.933 3.397m-15.866 0l7.933 3.398m-7.933-3.398v.003m15.866-.003L17.5 17.362m7.933-3.398v9.07l-7.933 3.4m7.933-12.47L17.5 17.367v9.066m0-9.07v9.07m0-9.07l-7.933-3.396m0 0v9.066l7.933 3.4" stroke="#0561FC" stroke-linejoin="round"/></svg><svg fill="none" viewBox="0 0 36 36" id="delivery_car" xmlns="http://www.w3.org/2000/svg"><path d="M10.214 21.212c.796 0 1.568.27 2.184.765a3.383 3.383 0 011.2 1.949h9.735v-13.57H8.143c-.733 0-1.435.287-1.953.796a2.69 2.69 0 00-.809 1.919v10.855h1.45a3.383 3.383 0 011.2-1.95 3.49 3.49 0 012.183-.764zm0 6.785a3.49 3.49 0 01-2.184-.765 3.383 3.383 0 01-1.199-1.95H4V13.072c0-1.08.436-2.115 1.213-2.879A4.18 4.18 0 018.143 9h15.19c.367 0 .718.143.977.397.259.255.404.6.404.96v2.714h4.143L33 18.473v6.81h-2.831a3.382 3.382 0 01-1.198 1.951 3.49 3.49 0 01-2.185.766 3.49 3.49 0 01-2.185-.766 3.383 3.383 0 01-1.199-1.951h-9.804a3.383 3.383 0 01-1.2 1.95 3.49 3.49 0 01-2.184.764zm0-5.428a2.09 2.09 0 00-1.464.596c-.389.382-.607.9-.607 1.44 0 .54.218 1.057.607 1.439a2.09 2.09 0 001.464.596 2.09 2.09 0 001.465-.596c.389-.382.607-.9.607-1.44 0-.54-.218-1.057-.607-1.439a2.09 2.09 0 00-1.465-.596zm16.572-1.357c.796 0 1.567.27 2.184.765a3.382 3.382 0 011.199 1.949h1.45v-4.999l-.329-.429h-6.576v3.392a3.48 3.48 0 012.072-.678zm0 1.357a2.09 2.09 0 00-1.465.596c-.389.382-.607.9-.607 1.44 0 .54.219 1.057.607 1.439a2.09 2.09 0 001.465.596 2.09 2.09 0 001.464-.596c.389-.382.607-.9.607-1.44 0-.54-.218-1.057-.607-1.439a2.09 2.09 0 00-1.464-.596zm-2.072-8.141v2.713h5.537l-2.084-2.713h-3.453z" fill="#0561FC"/></svg><svg fill="none" viewBox="0 0 16 16" id="gift" xmlns="http://www.w3.org/2000/svg"><path d="M7.254 3.93h1.492V7.57h5.557a.762.762 0 00.527-.21.7.7 0 00.219-.505V4.645a.7.7 0 00-.219-.505.762.762 0 00-.527-.21h-2.027c.274-.541.338-1.16.18-1.742A2.535 2.535 0 0011.413.75 2.728 2.728 0 008 1.065a2.73 2.73 0 00-3.409-.31A2.537 2.537 0 003.55 2.19a2.438 2.438 0 00.175 1.74H1.697a.762.762 0 00-.527.21.7.7 0 00-.219.505v2.21a.7.7 0 00.219.505.749.749 0 00.527.209h5.557V3.93zm1.492-1.104c0-.218.067-.432.194-.613.126-.182.306-.323.517-.407.21-.084.442-.106.665-.063.224.043.43.148.59.302.162.155.271.352.316.566.044.214.021.436-.066.638a1.116 1.116 0 01-.424.496c-.19.121-.412.186-.64.186H8.746V2.826zm-3.796 0c0-.293.121-.574.337-.78.217-.208.51-.324.815-.324.306 0 .599.116.815.323.216.208.337.488.337.781v1.105H6.102c-.305 0-.598-.117-.815-.324a1.082 1.082 0 01-.337-.78zM8.682 15.3h4.678a.808.808 0 00.55-.214.707.707 0 00.23-.516V8.933H8.681V15.3zM2.315 14.57c0 .194.076.38.21.516a.707.707 0 00.505.214h4.288V8.933H2.315v5.637z" fill="#fff"/></svg><svg fill="none" viewBox="0 0 36 36" id="listovoy_procat" xmlns="http://www.w3.org/2000/svg"><path d="M6 3a3 3 0 00-3 3v15h3V6h15V3H6zm6 6a3 3 0 00-3 3v15h3V12h15V9H12zm18 9v12H18V18h12zm0-3H18a3 3 0 00-3 3v12a3 3 0 003 3h12a3 3 0 003-3V18a3 3 0 00-3-3z" fill="#0561FC"/></svg><svg fill="none" viewBox="0 0 36 36" id="metize" xmlns="http://www.w3.org/2000/svg"><path d="M20.1 25v2.8L18 32l-2.1-4.2 4.2-2.8zm1.4-14.98l-1.4.98V9.6h-4.2v4.2l-1.4.98v1.4l7-4.62v-1.54zm0 5.6l-1.4.98v-2.8l-4.2 2.8v2.8l-1.4.98v1.4l7-4.62v-1.54zm0 5.6l-1.4.98v-2.8l-4.2 2.8V25l-1.4.98v1.4l7-4.62v-1.54zM12.4 4S11 4 11 5.4l4.2 2.8h5.6L25 5.4S25 4 23.6 4H12.4z" fill="#0561FC"/></svg><svg fill="none" viewBox="0 0 36 36" id="nalichie" xmlns="http://www.w3.org/2000/svg"><path d="M8 29v-1.235h16.059V29H8zm0-4.941v-1.236h21v1.236H8zM17.882 8h1.236v10.191l4.014-4.014.927.82-5.559 5.558-5.559-5.558.927-.82 4.014 4.014V8z" fill="#0561FC"/></svg><svg fill="none" viewBox="0 0 36 36" id="nerjavey" xmlns="http://www.w3.org/2000/svg"><path d="M33 31.186L4.829 3 3 4.814l2.7 2.7V30.53h23.014L31.186 33 33 31.186zM8.557 27.67v-17.3l17.3 17.3h-17.3zm4.572-20L10.27 4.814h21.143v21.143L28.557 23.1V7.671H13.13z" fill="#0561FC"/></svg><svg fill="none" viewBox="0 0 36 36" id="otsrochka" xmlns="http://www.w3.org/2000/svg"><path d="M24.203 18.5L9 9v19l1.461-.913L24.203 18.5zm-2.758 0l-10.984 6.863V11.637L21.445 18.5zM28 9h-1.462v19H28V9z" fill="#0561FC"/></svg><svg fill="none" viewBox="0 0 36 36" id="plus_hover" xmlns="http://www.w3.org/2000/svg"><path d="M5 18h26M18 5v26V5z" stroke="#fff"/></svg><svg fill="none" viewBox="0 0 36 36" id="plus_nonactive" xmlns="http://www.w3.org/2000/svg"><path d="M5 18h26M18 5v26V5z" stroke="#727272"/></svg><svg fill="none" viewBox="0 0 36 36" id="qest" xmlns="http://www.w3.org/2000/svg"><path d="M18 3a15 15 0 100 30 15 15 0 000-30zm0 27a12 12 0 110-24 12 12 0 010 24z" fill="#C6C6C6"/><path d="M18 9a5.25 5.25 0 00-5.25 5.25 1.5 1.5 0 103 0A2.25 2.25 0 1118 16.5a1.5 1.5 0 00-1.5 1.5v3a1.5 1.5 0 103 0v-1.74A5.235 5.235 0 0018 9zM18 27a1.5 1.5 0 100-3 1.5 1.5 0 000 3z" fill="#C6C6C6"/></svg><svg fill="none" viewBox="0 0 36 36" id="qwalluty" xmlns="http://www.w3.org/2000/svg"><path d="M12.353 10.45h2.794c0-.915.353-1.793.982-2.44A3.306 3.306 0 0118.5 7c.89 0 1.742.363 2.37 1.01.63.647.983 1.525.983 2.44h2.794c.89 0 1.742.364 2.37 1.01.63.647.983 1.525.983 2.44v12.65c0 .915-.353 1.793-.982 2.44a3.306 3.306 0 01-2.37 1.01H12.352c-.89 0-1.742-.363-2.371-1.01A3.501 3.501 0 019 26.55V13.9c0-.915.353-1.793.982-2.44a3.306 3.306 0 012.37-1.01zm0 1.15c-.593 0-1.162.242-1.58.674a2.334 2.334 0 00-.655 1.626v12.65c0 .61.235 1.195.654 1.626.42.432.988.674 1.58.674h12.295c.593 0 1.162-.242 1.58-.674.42-.431.655-1.016.655-1.626V13.9c0-.61-.235-1.195-.654-1.626a2.203 2.203 0 00-1.58-.674h-1.119v3.45H13.471V11.6h-1.118zm2.235 2.3h7.824v-2.3h-7.824v2.3zM18.5 8.15c-.593 0-1.161.242-1.58.674a2.334 2.334 0 00-.655 1.626h4.47c0-.61-.235-1.195-.654-1.626A2.204 2.204 0 0018.5 8.15zm6.315 9.89l-7.992 8.223-3.576-3.68.79-.813 2.786 2.866 7.2-7.41.79.814h.002z" fill="#0561FC"/></svg><svg fill="none" viewBox="0 0 36 36" id="santehnica" xmlns="http://www.w3.org/2000/svg"><path d="M32.786 13.318c-1.715 1.943-4.929 3.886-8.357 3.886-3.215 0-5.143-1.079-6.858-1.943-1.714-.647-3.428-1.727-6.214-1.727-2.571 0-4.928 1.511-6.214 2.807L3 13.102C4.929 11.16 7.929 9 11.357 9c3.214 0 5.143 1.296 6.857 1.943 1.715.648 3.429 1.943 6.215 1.943 2.571 0 4.928-1.727 6.214-3.022l2.143 3.454zM33 23.898C31.071 25.84 28.071 28 24.643 28c-3.214 0-5.143-1.08-6.857-1.943-1.715-.648-3.429-1.943-6.215-1.943-2.571 0-4.928 1.727-6.214 3.022l-2.143-3.454c1.929-1.943 4.929-4.102 8.357-4.102 3.215 0 5.143 1.08 6.858 1.943 1.714.648 3.428 1.727 6.214 1.727 2.571 0 4.928-1.727 6.214-3.023L33 23.897z" fill="#0561FC"/></svg><svg fill="none" viewBox="0 0 36 36" id="sklad" xmlns="http://www.w3.org/2000/svg"><path d="M21.382 19.832a.354.354 0 010 .5l-3 3a.363.363 0 01-.053.044l-.016.008a.35.35 0 01-.045.024l-.022.007a.35.35 0 01-.227 0c-.008-.002-.016-.003-.023-.007a.35.35 0 01-.045-.024l-.015-.008a.357.357 0 01-.054-.044l-3-3a.354.354 0 01.5-.5l2.397 2.396v-6.217a.353.353 0 11.707 0v6.218l2.396-2.397a.354.354 0 01.5 0zm4.882-6.65v12.022a1.062 1.062 0 01-1.06 1.06H11.06A1.062 1.062 0 0110 25.204V13.182c0-.026.003-.052.009-.077l.006-.02a.347.347 0 01.02-.052c0-.003 0-.006.002-.009l1.415-2.829a.354.354 0 01.316-.195h12.728a.354.354 0 01.317.195l1.414 2.829.003.009a.357.357 0 01.02.052l.005.02a.355.355 0 01.01.077zm-15.338-.353h14.413l-1.061-2.122H11.986l-1.06 2.122zm14.631 12.375V13.536h-14.85v11.668a.354.354 0 00.354.353h14.143a.354.354 0 00.353-.353z" fill="#0561FC"/></svg><svg fill="none" viewBox="0 0 36 36" id="sortovoy_procat" xmlns="http://www.w3.org/2000/svg"><path d="M13.5 4.5H6.75A2.25 2.25 0 004.5 6.75v6.75a2.25 2.25 0 002.25 2.25h6.75a2.25 2.25 0 002.25-2.25V6.75A2.25 2.25 0 0013.5 4.5zm0 9H6.75V6.75h6.75v6.75zM29.25 4.5H22.5a2.25 2.25 0 00-2.25 2.25v6.75a2.25 2.25 0 002.25 2.25h6.75a2.25 2.25 0 002.25-2.25V6.75a2.25 2.25 0 00-2.25-2.25zm0 9H22.5V6.75h6.75v6.75zM13.5 20.25H6.75A2.25 2.25 0 004.5 22.5v6.75a2.25 2.25 0 002.25 2.25h6.75a2.25 2.25 0 002.25-2.25V22.5a2.25 2.25 0 00-2.25-2.25zm0 9H6.75V22.5h6.75v6.75zM29.25 20.25H22.5a2.25 2.25 0 00-2.25 2.25v6.75a2.25 2.25 0 002.25 2.25h6.75a2.25 2.25 0 002.25-2.25V22.5a2.25 2.25 0 00-2.25-2.25zm0 9H22.5V22.5h6.75v6.75z" fill="#0561FC"/></svg><svg fill="none" viewBox="0 0 36 36" id="specstali" xmlns="http://www.w3.org/2000/svg"><path d="M18 15.603L14.404 18 18 20.397 21.596 18 18 15.603zm6 .794L27.596 14l-8.263-5.508v4.795L24 16.397zm4.667.094L26.404 18l2.263 1.508v-3.017zM24 19.603l-4.667 3.11v4.795L27.596 22 24 19.603zm-7.333-6.316V8.492L8.404 14 12 16.397l4.667-3.11zM8.404 22l8.263 5.508v-4.795L12 19.603 8.404 22zm1.192-4l-2.263-1.508v3.016L9.596 18zm-4.93-4a1.333 1.333 0 01.594-1.11l12-8a1.333 1.333 0 011.48 0l12 8a1.333 1.333 0 01.593 1.11v8a1.334 1.334 0 01-.593 1.11l-12 8a1.333 1.333 0 01-1.48 0l-12-8A1.334 1.334 0 014.667 22v-8z" fill="#0561FC"/></svg><svg fill="none" viewBox="0 0 36 36" id="trub" xmlns="http://www.w3.org/2000/svg"><path d="M18 3a15 15 0 100 30 15 15 0 000-30zm0 3a12 12 0 110 24 12 12 0 010-24zm0 3a9 9 0 100 18 9 9 0 000-18zm0 3a6 6 0 110 12 6 6 0 010-12z" fill="#0561FC"/></svg></svg>